<?xml version="1.0" encoding="iso-8859-1"?>
<!-- Generator: Adobe Illustrator 18.0.0, SVG Export Plug-In . SVG Version: 6.00 Build 0)  -->
<!DOCTYPE svg PUBLIC "-//W3C//DTD SVG 1.1//EN" "http://www.w3.org/Graphics/SVG/1.1/DTD/svg11.dtd">
<svg version="1.1" id="Capa_1" xmlns="http://www.w3.org/2000/svg" xmlns:xlink="http://www.w3.org/1999/xlink" x="0px" y="0px"
	 viewBox="0 0 60 60" style="enable-background:new 0 0 60 60;" xml:space="preserve">
<path style="fill:#FFFFFF;" d="M55.232,43.104C58.354,38.746,60,33.705,60,28.5c0-14.888-13.458-27-30-27S0,13.612,0,28.5s13.458,27,30,27
	c4.262,0,8.378-0.79,12.244-2.348c6.805,3.927,16.212,5.282,16.618,5.338c0.046,0.007,0.093,0.01,0.139,0.01
	c0.375,0,0.725-0.211,0.895-0.554c0.192-0.385,0.116-0.849-0.188-1.153C57.407,54.493,55.823,49.64,55.232,43.104z"/>
<g>
</g>
<g>
</g>
<g>
</g>
<g>
</g>
<g>
</g>
<g>
</g>
<g>
</g>
<g>
</g>
<g>
</g>
<g>
</g>
<g>
</g>
<g>
</g>
<g>
</g>
<g>
</g>
<g>
</g>
</svg>
